<svg width="24" height="24" viewBox="0 0 24 24" fill="none" xmlns="http://www.w3.org/2000/svg">
<path d="M14.4301 18.82C14.6201 18.82 14.8101 18.75 14.9601 18.6L21.0301 12.53C21.3201 12.24 21.3201 11.76 21.0301 11.47L14.9601 5.4C14.6701 5.11 14.1901 5.11 13.9001 5.4C13.6101 5.69 13.6101 6.17 13.9001 6.46L19.4401 12L13.9001 17.54C13.6101 17.83 13.6101 18.31 13.9001 18.6C14.0401 18.75 14.2401 18.82 14.4301 18.82Z" fill="#838E9E"/>
<path d="M3.49996 12.75H20.33C20.74 12.75 21.08 12.41 21.08 12C21.08 11.59 20.74 11.25 20.33 11.25H3.49996C3.08996 11.25 2.74996 11.59 2.74996 12C2.74996 12.41 3.08996 12.75 3.49996 12.75Z" fill="#838E9E"/>
</svg>
