<svg width="16" height="16" viewBox="0 0 16 16" fill="none" xmlns="http://www.w3.org/2000/svg">
<path d="M5.93998 13.78C5.81332 13.78 5.68665 13.7333 5.58665 13.6333C5.39332 13.44 5.39332 13.12 5.58665 12.9267L9.93332 8.58C10.2533 8.26 10.2533 7.74 9.93332 7.42L5.58665 3.07333C5.39332 2.88 5.39332 2.56 5.58665 2.36666C5.77998 2.17333 6.09998 2.17333 6.29332 2.36666L10.64 6.71333C10.98 7.05333 11.1733 7.51333 11.1733 8C11.1733 8.48666 10.9866 8.94667 10.64 9.28666L6.29332 13.6333C6.19332 13.7267 6.06665 13.78 5.93998 13.78Z" fill="#F2563A"/>
</svg>
