<svg width="121" height="48" viewBox="0 0 121 48" fill="none" xmlns="http://www.w3.org/2000/svg">
<path d="M10.5617 29H8.83375V18.28H10.5617V22.824H16.8657V18.28H18.5777V29H16.8657V24.376H10.5617V29ZM22.5611 20.12H20.8331V18.28H22.5611V20.12ZM22.5611 29H20.8331V21.048H22.5611V29ZM32.6092 29H24.3692V27.512L28.4172 23.896L30.0972 22.632V22.504L28.4172 22.568H24.6092V21.048H32.3692V22.536L28.0332 26.344L26.5612 27.432V27.56L28.0332 27.48H32.6092V29ZM36.138 29H34.41V21.048H35.994V23.448H36.09C36.298 22.12 37.162 20.888 39.146 20.888C40.954 20.888 41.93 21.992 42.154 23.512H42.25C42.458 22.152 43.354 20.888 45.37 20.888C47.434 20.888 48.474 22.296 48.474 24.216V29H46.762V24.68C46.762 23.112 46.138 22.44 44.602 22.44C42.906 22.44 42.298 23.304 42.298 25.064V29H40.586V24.68C40.586 23.112 39.978 22.44 38.442 22.44C36.73 22.44 36.138 23.304 36.138 25.064V29ZM54.6594 29.16C52.0514 29.16 50.3394 27.688 50.3394 25.032C50.3394 22.552 52.0354 20.888 54.6274 20.888C57.0914 20.888 58.7714 22.248 58.7714 24.664C58.7714 24.952 58.7554 25.176 58.7074 25.416H51.9554C52.0194 26.952 52.7714 27.768 54.6114 27.768C56.2754 27.768 56.9634 27.224 56.9634 26.28V26.152H58.6914V26.296C58.6914 27.992 57.0274 29.16 54.6594 29.16ZM54.5954 22.248C52.8354 22.248 52.0674 23.032 51.9714 24.456H57.1394V24.424C57.1394 22.952 56.2914 22.248 54.5954 22.248ZM65.9216 29H64.0976C62.3856 29 61.3296 28.248 61.3296 26.312V22.488H59.9856V21.048H61.3296V19.304H63.0416V21.048H65.9216V22.488H63.0416V26.216C63.0416 27.192 63.4896 27.448 64.4816 27.448H65.9216V29ZM69.3705 29H67.6425V18.28H69.3705V29ZM75.6106 29.16C73.0026 29.16 71.2906 27.688 71.2906 25.032C71.2906 22.552 72.9866 20.888 75.5786 20.888C78.0426 20.888 79.7226 22.248 79.7226 24.664C79.7226 24.952 79.7066 25.176 79.6586 25.416H72.9066C72.9706 26.952 73.7226 27.768 75.5626 27.768C77.2266 27.768 77.9146 27.224 77.9146 26.28V26.152H79.6426V26.296C79.6426 27.992 77.9786 29.16 75.6106 29.16ZM75.5466 22.248C73.7866 22.248 73.0186 23.032 72.9226 24.456H78.0906V24.424C78.0906 22.952 77.2426 22.248 75.5466 22.248ZM83.3849 29H81.6569V21.048H83.2409V23.192H83.3529C83.5929 21.912 84.4569 20.888 86.0889 20.888C87.8969 20.888 88.6809 22.184 88.6809 23.688V24.728H86.9689V24.024C86.9689 22.888 86.4889 22.36 85.3049 22.36C83.9449 22.36 83.3849 23.112 83.3849 24.536V29Z" fill="#1E1B39"/>
<path d="M103 28C102.417 28 101.833 27.775 101.392 27.3334L95.9583 21.9C95.7167 21.6584 95.7167 21.2584 95.9583 21.0167C96.2 20.775 96.6 20.775 96.8417 21.0167L102.275 26.45C102.675 26.85 103.325 26.85 103.725 26.45L109.158 21.0167C109.4 20.775 109.8 20.775 110.042 21.0167C110.283 21.2584 110.283 21.6584 110.042 21.9L104.608 27.3334C104.167 27.775 103.583 28 103 28Z" fill="#1E1B39"/>
</svg>
