<svg width="40" height="40" viewBox="0 0 40 40" fill="none" xmlns="http://www.w3.org/2000/svg">
<rect width="40" height="40" rx="8" fill="#2B274E"/>
<path d="M20.8567 11.6666C21.7942 11.6691 22.27 11.6741 22.6808 11.6858L22.8425 11.6916C23.0292 11.6983 23.2133 11.7066 23.4358 11.7166C24.3225 11.7583 24.9275 11.8983 25.4583 12.1041C26.0083 12.3158 26.4717 12.6025 26.935 13.065C27.3588 13.4815 27.6866 13.9855 27.8958 14.5416C28.1017 15.0725 28.2417 15.6775 28.2833 16.565C28.2933 16.7866 28.3017 16.9708 28.3083 17.1583L28.3133 17.32C28.3258 17.73 28.3308 18.2058 28.3325 19.1433L28.3333 19.765V20.8566C28.3354 21.4645 28.329 22.0723 28.3142 22.68L28.3092 22.8416C28.3025 23.0291 28.2942 23.2133 28.2842 23.435C28.2425 24.3225 28.1008 24.9266 27.8958 25.4583C27.6872 26.0148 27.3593 26.5188 26.935 26.935C26.5183 27.3586 26.0144 27.6864 25.4583 27.8958C24.9275 28.1016 24.3225 28.2416 23.4358 28.2833C23.2381 28.2926 23.0403 28.3009 22.8425 28.3083L22.6808 28.3133C22.27 28.325 21.7942 28.3308 20.8567 28.3325L20.235 28.3333H19.1442C18.5361 28.3354 17.928 28.329 17.32 28.3141L17.1583 28.3091C16.9605 28.3016 16.7627 28.293 16.565 28.2833C15.6783 28.2416 15.0733 28.1016 14.5417 27.8958C13.9856 27.6869 13.4819 27.359 13.0658 26.935C12.6417 26.5185 12.3135 26.0146 12.1042 25.4583C11.8983 24.9275 11.7583 24.3225 11.7167 23.435C11.7074 23.2372 11.6991 23.0394 11.6917 22.8416L11.6875 22.68C11.6722 22.0723 11.6652 21.4645 11.6667 20.8566V19.1433C11.6644 18.5355 11.6705 17.9276 11.685 17.32L11.6908 17.1583C11.6975 16.9708 11.7058 16.7866 11.7158 16.565C11.7575 15.6775 11.8975 15.0733 12.1033 14.5416C12.3126 13.9849 12.6414 13.4808 13.0667 13.065C13.4826 12.6412 13.986 12.3133 14.5417 12.1041C15.0733 11.8983 15.6775 11.7583 16.565 11.7166C16.7867 11.7066 16.9717 11.6983 17.1583 11.6916L17.32 11.6866C17.9277 11.6718 18.5355 11.6654 19.1433 11.6675L20.8567 11.6666ZM20 15.8333C18.8949 15.8333 17.8351 16.2723 17.0537 17.0537C16.2723 17.8351 15.8333 18.8949 15.8333 20C15.8333 21.105 16.2723 22.1648 17.0537 22.9462C17.8351 23.7276 18.8949 24.1666 20 24.1666C21.1051 24.1666 22.1649 23.7276 22.9463 22.9462C23.7277 22.1648 24.1667 21.105 24.1667 20C24.1667 18.8949 23.7277 17.8351 22.9463 17.0537C22.1649 16.2723 21.1051 15.8333 20 15.8333ZM20 17.5C20.3283 17.4999 20.6534 17.5645 20.9568 17.6901C21.2601 17.8157 21.5357 17.9998 21.7679 18.2319C22.0001 18.464 22.1843 18.7396 22.31 19.0429C22.4357 19.3462 22.5004 19.6712 22.5004 19.9995C22.5005 20.3278 22.4359 20.6529 22.3103 20.9563C22.1847 21.2596 22.0006 21.5352 21.7685 21.7674C21.5364 21.9996 21.2608 22.1838 20.9575 22.3095C20.6542 22.4352 20.3292 22.4999 20.0008 22.5C19.3378 22.5 18.7019 22.2366 18.2331 21.7677C17.7642 21.2989 17.5008 20.663 17.5008 20C17.5008 19.3369 17.7642 18.701 18.2331 18.2322C18.7019 17.7634 19.3378 17.5 20.0008 17.5M24.3758 14.5833C24.0996 14.5833 23.8346 14.693 23.6393 14.8884C23.4439 15.0837 23.3342 15.3487 23.3342 15.625C23.3342 15.9012 23.4439 16.1662 23.6393 16.3615C23.8346 16.5569 24.0996 16.6666 24.3758 16.6666C24.6521 16.6666 24.9171 16.5569 25.1124 16.3615C25.3078 16.1662 25.4175 15.9012 25.4175 15.625C25.4175 15.3487 25.3078 15.0837 25.1124 14.8884C24.9171 14.693 24.6521 14.5833 24.3758 14.5833Z" fill="white"/>
</svg>
