<svg width="40" height="40" viewBox="0 0 40 40" fill="none" xmlns="http://www.w3.org/2000/svg">
<rect width="40" height="40" rx="8" fill="#2B274E"/>
<g clip-path="url(#clip0_745_2876)">
<path d="M29.995 30.0001V29.9993H30V22.6643C30 19.0759 29.2275 16.3118 25.0325 16.3118C23.0158 16.3118 21.6625 17.4184 21.11 18.4676H21.0517V16.6468H17.0742V29.9993H21.2158V23.3876C21.2158 21.6468 21.5458 19.9634 23.7017 19.9634C25.8258 19.9634 25.8575 21.9501 25.8575 23.4993V30.0001H29.995Z" fill="white"/>
<path d="M10.33 16.6475H14.4767V30H10.33V16.6475Z" fill="white"/>
<path d="M12.4017 10C11.0758 10 10 11.0758 10 12.4017C10 13.7275 11.0758 14.8258 12.4017 14.8258C13.7275 14.8258 14.8033 13.7275 14.8033 12.4017C14.8025 11.0758 13.7267 10 12.4017 10V10Z" fill="white"/>
</g>
<defs>
<clipPath id="clip0_745_2876">
<rect width="20" height="20" fill="white" transform="translate(10 10)"/>
</clipPath>
</defs>
</svg>
