<svg width="41" height="40" viewBox="0 0 41 40" fill="none" xmlns="http://www.w3.org/2000/svg">
<rect x="0.902832" width="40" height="40" rx="20" fill="#2B274E"/>
<path d="M25.0695 27.7083H16.7361C13.6945 27.7083 11.9445 25.9583 11.9445 22.9166V17.0833C11.9445 14.0416 13.6945 12.2916 16.7361 12.2916H25.0695C28.1111 12.2916 29.8611 14.0416 29.8611 17.0833V22.9166C29.8611 25.9583 28.1111 27.7083 25.0695 27.7083ZM16.7361 13.5416C14.3528 13.5416 13.1945 14.7 13.1945 17.0833V22.9166C13.1945 25.3 14.3528 26.4583 16.7361 26.4583H25.0695C27.4528 26.4583 28.6111 25.3 28.6111 22.9166V17.0833C28.6111 14.7 27.4528 13.5416 25.0695 13.5416H16.7361Z" fill="white"/>
<path d="M20.9027 20.725C20.2027 20.725 19.4944 20.5083 18.9527 20.0666L16.3444 17.9833C16.0777 17.7666 16.0277 17.375 16.2444 17.1083C16.461 16.8416 16.8527 16.7916 17.1194 17.0083L19.7277 19.0916C20.361 19.6 21.436 19.6 22.0693 19.0916L24.6777 17.0083C24.9444 16.7916 25.3444 16.8333 25.5527 17.1083C25.7694 17.375 25.7277 17.775 25.4527 17.9833L22.8444 20.0666C22.311 20.5083 21.6027 20.725 20.9027 20.725Z" fill="white"/>
</svg>
